<svg width="370" height="200" viewBox="0 0 370 200" fill="none" xmlns="http://www.w3.org/2000/svg">
<path d="M137.129 126.852C136.149 131.093 134.329 136.608 133.209 139.011C132.368 139.153 131.668 139.294 130.828 139.436C131.808 136.325 132.789 130.952 133.349 127.276C134.609 127.276 135.869 127.134 137.129 126.852Z" fill="url(#paint0_linear_292_138)"/>
<rect width="370" height="200" fill="url(#paint1_linear_292_138)"/>
<path opacity="0.6" fill-rule="evenodd" clip-rule="evenodd" d="M128.781 71.3904C128.781 81.6664 124.139 90.8582 116.837 96.9832L119.714 100.607C125.221 96.6035 131.999 94.2422 139.328 94.2422C146.307 94.2422 152.786 96.3832 158.143 100.044L161.371 96.8164C154.183 90.6919 149.625 81.5735 149.625 71.3904C149.625 52.9494 164.574 38 183.015 38C201.456 38 216.406 52.9494 216.406 71.3904C216.406 81.6686 211.762 90.8621 204.458 96.9872L207.334 100.611C212.842 96.605 219.622 94.2422 226.953 94.2422C234.448 94.2422 241.366 96.7117 246.939 100.882L250.602 97.2185C243.137 91.0948 238.375 81.7988 238.375 71.3904C238.375 52.9494 253.324 38 271.765 38C290.206 38 305.156 52.9494 305.156 71.3904C305.156 89.8314 290.206 104.781 271.765 104.781C265.009 104.781 258.722 102.774 253.466 99.3246L249.649 103.142C256.227 109.24 260.343 117.956 260.343 127.633C260.343 146.074 245.394 161.023 226.953 161.023C208.512 161.023 193.562 146.074 193.562 127.633C193.562 117.786 197.824 108.936 204.604 102.824L201.649 99.102C196.327 102.688 189.916 104.781 183.015 104.781C176.031 104.781 169.548 102.636 164.188 98.9703L160.961 102.197C168.155 108.322 172.718 117.444 172.718 127.633C172.718 146.074 157.769 161.023 139.328 161.023C120.887 161.023 105.938 146.074 105.938 127.633C105.938 117.784 110.201 108.932 116.983 102.82L114.029 99.0986C108.706 102.686 102.293 104.781 95.3904 104.781C76.9494 104.781 62 89.8314 62 71.3904C62 52.9494 76.9494 38 95.3904 38C113.831 38 128.781 52.9494 128.781 71.3904Z" fill="url(#paint2_linear_292_138)"/>
<circle cx="95.3995" cy="71.4034" r="28.1182" fill="url(#paint3_radial_292_138)"/>
<circle cx="183.024" cy="71.4034" r="28.1182" fill="url(#paint4_radial_292_138)"/>
<circle cx="139.329" cy="127.628" r="28.1182" fill="url(#paint5_radial_292_138)"/>
<circle cx="226.962" cy="127.628" r="28.1182" fill="url(#paint6_radial_292_138)"/>
<circle cx="271.774" cy="71.4034" r="28.1182" fill="url(#paint7_radial_292_138)"/>
<path d="M80.8687 85.7926V58.7226H87.6667V59.0275H86.3559C85.7259 59.0275 85.228 59.0986 84.8622 59.2408C84.4964 59.3628 84.2322 59.5863 84.0696 59.9115C83.9273 60.2163 83.8562 60.6533 83.8562 61.2223V83.2929C83.8562 83.8416 83.9273 84.2786 84.0696 84.6037C84.2322 84.9289 84.4964 85.1524 84.8622 85.2744C85.228 85.4166 85.7259 85.4878 86.3559 85.4878H87.6667V85.7926H80.8687ZM89.5065 81.8906V81.5858H89.9028C90.5125 81.5858 91.0002 81.5045 91.366 81.3419C91.7318 81.1793 91.996 80.9253 92.1586 80.5798C92.3212 80.2343 92.4025 79.7872 92.4025 79.2385V68.2337C92.4025 67.6647 92.3212 67.2074 92.1586 66.8619C91.996 66.5164 91.7318 66.2624 91.366 66.0998C91.0002 65.9372 90.5125 65.8559 89.9028 65.8559H89.8113V65.5511H95.268V79.0861C95.268 79.6958 95.3493 80.1835 95.5119 80.5493C95.6745 80.9151 95.9387 81.1793 96.3045 81.3419C96.6906 81.5045 97.1784 81.5858 97.7677 81.5858H98.164V81.8906H89.5065ZM93.6828 62.6246C93.2967 62.6246 92.9715 62.5027 92.7073 62.2588C92.4635 61.9946 92.3415 61.5475 92.3415 60.9175C92.3415 60.2671 92.4635 59.82 92.7073 59.5762C92.9715 59.3323 93.2967 59.2104 93.6828 59.2104C94.0486 59.2104 94.3636 59.3323 94.6278 59.5762C94.892 59.82 95.0241 60.2671 95.0241 60.9175C95.0241 61.5475 94.892 61.9946 94.6278 62.2588C94.3636 62.5027 94.0486 62.6246 93.6828 62.6246ZM99.6977 85.7926V85.4878H101.009C101.639 85.4878 102.136 85.4166 102.502 85.2744C102.868 85.1524 103.122 84.9289 103.264 84.6037C103.427 84.2786 103.508 83.8416 103.508 83.2929V61.2223C103.508 60.6533 103.427 60.2163 103.264 59.9115C103.122 59.5863 102.868 59.3628 102.502 59.2408C102.136 59.0986 101.639 59.0275 101.009 59.0275H99.6977V58.7226H106.496V85.7926H99.6977Z" fill="url(#paint8_radial_292_138)"/>
<path d="M258.025 85.7926V58.7226H264.823V59.0275H263.512C262.882 59.0275 262.384 59.0986 262.018 59.2408C261.653 59.3628 261.388 59.5863 261.226 59.9115C261.084 60.2163 261.012 60.6533 261.012 61.2223V83.2929C261.012 83.8416 261.084 84.2786 261.226 84.6037C261.388 84.9289 261.653 85.1524 262.018 85.2744C262.384 85.4166 262.882 85.4878 263.512 85.4878H264.823V85.7926H258.025ZM273.278 82.1955C271.733 82.1955 270.605 81.85 269.894 81.159C269.203 80.4477 268.858 79.2182 268.858 77.4704V65.8559H266.541V65.5511C267.272 65.5511 267.902 65.4901 268.431 65.3682C268.98 65.2259 269.447 65.0125 269.833 64.728C270.24 64.4435 270.565 64.0574 270.809 63.5696C271.073 63.0819 271.276 62.4925 271.418 61.8015H271.723V65.5511H275.991V65.8559H271.723V78.5983C271.723 79.6551 271.926 80.4477 272.333 80.9761C272.739 81.5045 273.339 81.7687 274.131 81.7687C274.416 81.7687 274.711 81.7382 275.015 81.6772C275.32 81.6163 275.645 81.5248 275.991 81.4029V81.7077C275.727 81.8297 275.33 81.9414 274.802 82.043C274.274 82.1447 273.766 82.1955 273.278 82.1955ZM277.807 85.7926V85.4878H279.117C279.747 85.4878 280.245 85.4166 280.611 85.2744C280.977 85.1524 281.231 84.9289 281.373 84.6037C281.536 84.2786 281.617 83.8416 281.617 83.2929V61.2223C281.617 60.6533 281.536 60.2163 281.373 59.9115C281.231 59.5863 280.977 59.3628 280.611 59.2408C280.245 59.0986 279.747 59.0275 279.117 59.0275H277.807V58.7226H284.605V85.7926H277.807Z" fill="url(#paint9_radial_292_138)"/>
<path d="M127.955 141.64V114.57H134.753V114.875H133.442C132.812 114.875 132.314 114.946 131.948 115.089C131.582 115.21 131.318 115.434 131.156 115.759C131.013 116.064 130.942 116.501 130.942 117.07V139.141C130.942 139.689 131.013 140.126 131.156 140.451C131.318 140.777 131.582 141 131.948 141.122C132.314 141.264 132.812 141.335 133.442 141.335H134.753V141.64H127.955ZM143.866 141.64V141.335H145.177C145.807 141.335 146.305 141.264 146.671 141.122C147.037 141 147.291 140.777 147.433 140.451C147.595 140.126 147.677 139.689 147.677 139.141V117.07C147.677 116.501 147.595 116.064 147.433 115.759C147.291 115.434 147.037 115.21 146.671 115.089C146.305 114.946 145.807 114.875 145.177 114.875H143.866V114.57H150.664V141.64H143.866Z" fill="url(#paint10_radial_292_138)"/>
<path d="M143.613 112.641C142.514 117.397 140.472 123.581 139.216 126.276C138.274 126.435 137.489 126.593 136.547 126.752C137.646 123.264 138.745 117.239 139.373 113.116C140.786 113.116 142.2 112.958 143.613 112.641Z" fill="url(#paint11_linear_292_138)"/>
<path d="M211.181 140.738V113.668H217.979V113.973H216.668C216.038 113.973 215.54 114.044 215.175 114.186C214.809 114.308 214.545 114.532 214.382 114.857C214.24 115.162 214.169 115.599 214.169 116.168V138.238C214.169 138.787 214.24 139.224 214.382 139.549C214.545 139.874 214.809 140.098 215.175 140.22C215.54 140.362 216.038 140.433 216.668 140.433H217.979V140.738H211.181ZM233.94 140.738V140.433H235.251C235.881 140.433 236.379 140.362 236.744 140.22C237.11 140.098 237.364 139.874 237.507 139.549C237.669 139.224 237.75 138.787 237.75 138.238V116.168C237.75 115.599 237.669 115.162 237.507 114.857C237.364 114.532 237.11 114.308 236.744 114.186C236.379 114.044 235.881 113.973 235.251 113.973H233.94V113.668H240.738V140.738H233.94Z" fill="url(#paint12_radial_292_138)"/>
<path d="M234.789 119.768C234.608 119.364 234.133 119.183 233.729 119.364L227.138 122.313C226.734 122.494 226.553 122.968 226.734 123.373C226.915 123.777 227.389 123.958 227.794 123.777L233.652 121.156L236.273 127.014C236.454 127.418 236.929 127.599 237.333 127.418C237.737 127.237 237.919 126.763 237.738 126.359L234.789 119.768ZM218.966 139.737C228.742 135.989 231.566 128.87 234.806 120.382L233.307 119.81C230.06 128.315 227.442 134.769 218.392 138.239L218.966 139.737Z" fill="url(#paint13_linear_292_138)"/>
<path d="M201.26 82.0818C201.208 82.2393 201.156 82.3969 201.104 82.6069C200.688 84.2345 199.18 85.4947 197.516 85.5472C197.36 85.5472 197.152 85.5472 196.996 85.5472C187.896 85.5472 178.796 85.5472 169.749 85.5472C168.345 85.5472 167.201 85.0746 166.317 83.9195C165.589 82.9744 165.433 81.9243 165.537 80.7167C170.165 80.7167 174.741 80.7167 179.42 80.7167C179.42 81.3467 179.42 81.9768 179.42 82.6594C182.072 82.6594 184.724 82.6594 187.376 82.6594C187.376 82.0293 187.376 81.3992 187.376 80.7167C192.056 80.7167 196.684 80.7167 201.312 80.7167C201.26 81.1892 201.26 81.6093 201.26 82.0818Z" fill="url(#paint14_linear_292_138)"/>
<path d="M168.297 78.7138C168.297 71.7831 168.297 64.8524 168.297 57.8691C178.333 57.8691 188.368 57.8691 198.456 57.8691C198.456 64.7999 198.456 71.7306 198.456 78.7138C188.42 78.7138 178.385 78.7138 168.297 78.7138ZM195.648 60.7044C187.432 60.7044 179.268 60.7044 171.053 60.7044C171.053 65.3774 171.053 69.9979 171.053 74.6709C179.268 74.6709 187.432 74.6709 195.648 74.6709C195.648 69.9979 195.648 65.3774 195.648 60.7044Z" fill="url(#paint15_linear_292_138)"/>
<rect x="175.117" y="65.2383" width="1.75739" height="5.27217" rx="0.878694" fill="url(#paint16_linear_292_138)"/>
<rect x="178.633" y="64.3535" width="1.75739" height="7.02955" rx="0.878694" fill="url(#paint17_linear_292_138)"/>
<rect x="182.141" y="63.4863" width="1.75739" height="8.78694" rx="0.878694" fill="url(#paint18_linear_292_138)"/>
<rect x="185.664" y="64.3535" width="1.75739" height="7.02955" rx="0.878694" fill="url(#paint19_linear_292_138)"/>
<rect x="189.18" y="65.2383" width="1.75739" height="5.27217" rx="0.878694" fill="url(#paint20_linear_292_138)"/>
<defs>
<linearGradient id="paint0_linear_292_138" x1="133.979" y1="126.852" x2="133.979" y2="139.436" gradientUnits="userSpaceOnUse">
<stop stop-color="#32C4F0"/>
<stop offset="1" stop-color="#7FDFF7"/>
</linearGradient>
<linearGradient id="paint1_linear_292_138" x1="-47.3967" y1="-20.5" x2="266.507" y2="135.44" gradientUnits="userSpaceOnUse">
<stop stop-color="#5BC8E6"/>
<stop offset="0.497917" stop-color="#B8F0FF"/>
<stop offset="1" stop-color="#A4EEFF"/>
</linearGradient>
<linearGradient id="paint2_linear_292_138" x1="163.086" y1="98.0574" x2="160.399" y2="101.205" gradientUnits="userSpaceOnUse">
<stop stop-color="#337589"/>
<stop offset="1" stop-color="#0A4F64"/>
</linearGradient>
<radialGradient id="paint3_radial_292_138" cx="0" cy="0" r="1" gradientUnits="userSpaceOnUse" gradientTransform="translate(95.3995 71.4034) rotate(90) scale(28.1182)">
<stop offset="0.419792" stop-color="white"/>
<stop offset="1" stop-color="#F0F0F0"/>
</radialGradient>
<radialGradient id="paint4_radial_292_138" cx="0" cy="0" r="1" gradientUnits="userSpaceOnUse" gradientTransform="translate(183.024 71.4034) rotate(90) scale(28.1182)">
<stop offset="0.419792" stop-color="white"/>
<stop offset="1" stop-color="#F0F0F0"/>
</radialGradient>
<radialGradient id="paint5_radial_292_138" cx="0" cy="0" r="1" gradientUnits="userSpaceOnUse" gradientTransform="translate(139.329 127.628) rotate(90) scale(28.1182)">
<stop offset="0.419792" stop-color="white"/>
<stop offset="1" stop-color="#F0F0F0"/>
</radialGradient>
<radialGradient id="paint6_radial_292_138" cx="0" cy="0" r="1" gradientUnits="userSpaceOnUse" gradientTransform="translate(226.962 127.628) rotate(90) scale(28.1182)">
<stop offset="0.419792" stop-color="white"/>
<stop offset="1" stop-color="#F0F0F0"/>
</radialGradient>
<radialGradient id="paint7_radial_292_138" cx="0" cy="0" r="1" gradientUnits="userSpaceOnUse" gradientTransform="translate(271.774 71.4034) rotate(90) scale(28.1182)">
<stop offset="0.419792" stop-color="white"/>
<stop offset="1" stop-color="#F0F0F0"/>
</radialGradient>
<radialGradient id="paint8_radial_292_138" cx="0" cy="0" r="1" gradientUnits="userSpaceOnUse" gradientTransform="translate(95.0286 68.856) rotate(50.5719) scale(26.9012 802.511)">
<stop stop-color="#054A5F" stop-opacity="0.71"/>
<stop offset="1" stop-color="#043948"/>
</radialGradient>
<radialGradient id="paint9_radial_292_138" cx="0" cy="0" r="1" gradientUnits="userSpaceOnUse" gradientTransform="translate(272.615 68.856) rotate(49.8763) scale(27.1745 814.302)">
<stop stop-color="#054A5F" stop-opacity="0.71"/>
<stop offset="1" stop-color="#043948"/>
</radialGradient>
<radialGradient id="paint10_radial_292_138" cx="0" cy="0" r="1" gradientUnits="userSpaceOnUse" gradientTransform="translate(140.394 124.704) rotate(53.4983) scale(25.8498 751.636)">
<stop stop-color="#054A5F" stop-opacity="0.71"/>
<stop offset="1" stop-color="#043948"/>
</radialGradient>
<linearGradient id="paint11_linear_292_138" x1="140.08" y1="112.641" x2="140.08" y2="126.752" gradientUnits="userSpaceOnUse">
<stop stop-color="#084D62"/>
<stop offset="1" stop-color="#32788C"/>
</linearGradient>
<radialGradient id="paint12_radial_292_138" cx="0" cy="0" r="1" gradientUnits="userSpaceOnUse" gradientTransform="translate(227.492 123.801) rotate(47.2309) scale(28.3057 858.028)">
<stop stop-color="#054A5F" stop-opacity="0.71"/>
<stop offset="1" stop-color="#043948"/>
</radialGradient>
<linearGradient id="paint13_linear_292_138" x1="237.132" y1="119.657" x2="216.922" y2="142.942" gradientUnits="userSpaceOnUse">
<stop stop-color="#074C61"/>
<stop offset="1" stop-color="#31778A"/>
</linearGradient>
<linearGradient id="paint14_linear_292_138" x1="165.633" y1="80.6306" x2="200.452" y2="84.9409" gradientUnits="userSpaceOnUse">
<stop stop-color="#043948"/>
<stop offset="1" stop-color="#054A5F" stop-opacity="0.71"/>
</linearGradient>
<linearGradient id="paint15_linear_292_138" x1="183.376" y1="57.8691" x2="183.376" y2="78.7138" gradientUnits="userSpaceOnUse">
<stop stop-color="#053847"/>
<stop offset="1" stop-color="#054254" stop-opacity="0.71"/>
</linearGradient>
<linearGradient id="paint16_linear_292_138" x1="175.996" y1="65.2383" x2="175.996" y2="70.5104" gradientUnits="userSpaceOnUse">
<stop stop-color="#053847"/>
<stop offset="1" stop-color="#054254" stop-opacity="0.71"/>
</linearGradient>
<linearGradient id="paint17_linear_292_138" x1="179.512" y1="64.3535" x2="179.512" y2="71.3831" gradientUnits="userSpaceOnUse">
<stop stop-color="#053847"/>
<stop offset="1" stop-color="#054254" stop-opacity="0.71"/>
</linearGradient>
<linearGradient id="paint18_linear_292_138" x1="183.019" y1="63.4863" x2="183.019" y2="72.2733" gradientUnits="userSpaceOnUse">
<stop stop-color="#053847"/>
<stop offset="1" stop-color="#054254" stop-opacity="0.71"/>
</linearGradient>
<linearGradient id="paint19_linear_292_138" x1="186.543" y1="64.3535" x2="186.543" y2="71.3831" gradientUnits="userSpaceOnUse">
<stop stop-color="#053847"/>
<stop offset="1" stop-color="#054254" stop-opacity="0.71"/>
</linearGradient>
<linearGradient id="paint20_linear_292_138" x1="190.058" y1="65.2383" x2="190.058" y2="70.5104" gradientUnits="userSpaceOnUse">
<stop stop-color="#053847"/>
<stop offset="1" stop-color="#054254" stop-opacity="0.71"/>
</linearGradient>
</defs>
</svg>
