<svg width="69" height="81" viewBox="0 0 69 81" fill="none" xmlns="http://www.w3.org/2000/svg">
<path d="M66.125 11.7464C50.14 11.7464 36.4263 0.993914 36.2825 0.878914C35.7749 0.477825 35.1469 0.259644 34.5 0.259644C33.8531 0.259644 33.2251 0.477825 32.7175 0.878914C32.5737 0.993914 18.9175 11.7464 2.875 11.7464C2.1125 11.7464 1.38124 12.0493 0.842069 12.5885C0.302902 13.1277 0 13.8589 0 14.6214V40.4964C0 59.7877 7.79125 69.2464 33.3213 80.4877C33.6919 80.6543 34.0936 80.7404 34.5 80.7404C34.9064 80.7404 35.3081 80.6543 35.6787 80.4877C61.2087 69.2464 69 59.7877 69 40.4964V14.6214C69 13.8589 68.6971 13.1277 68.1579 12.5885C67.6188 12.0493 66.8875 11.7464 66.125 11.7464ZM34.5 63.4964C29.951 63.4964 25.5042 62.1475 21.7219 59.6202C17.9396 57.0929 14.9916 53.5008 13.2508 49.2981C11.51 45.0954 11.0545 40.4709 11.9419 36.0093C12.8294 31.5478 15.0199 27.4496 18.2365 24.233C21.4532 21.0163 25.5514 18.8258 30.0129 17.9384C34.4745 17.0509 39.099 17.5064 43.3017 19.2472C47.5044 20.988 51.0965 23.936 53.6238 27.7183C56.1511 31.5006 57.5 35.9474 57.5 40.4964C57.5 46.5964 55.0768 52.4465 50.7635 56.7599C46.4501 61.0732 40.6 63.4964 34.5 63.4964Z" fill="#ED1B61"/>
<path d="M41.0799 32.7046L31.6211 42.1921L27.9124 38.4546C27.6443 38.1866 27.3261 37.9739 26.9759 37.8289C26.6256 37.6838 26.2502 37.6091 25.8711 37.6091C25.492 37.6091 25.1167 37.6838 24.7664 37.8289C24.4162 37.9739 24.0979 38.1866 23.8299 38.4546C23.5618 38.7227 23.3492 39.0409 23.2041 39.3912C23.059 39.7414 22.9844 40.1168 22.9844 40.4959C22.9844 40.875 23.059 41.2504 23.2041 41.6006C23.3492 41.9508 23.5618 42.2691 23.8299 42.5371L29.5799 48.2871C29.8472 48.5566 30.1651 48.7705 30.5155 48.9165C30.8658 49.0624 31.2416 49.1376 31.6211 49.1376C32.0007 49.1376 32.3765 49.0624 32.7268 48.9165C33.0771 48.7705 33.3951 48.5566 33.6624 48.2871L45.1624 36.7871C45.4304 36.5191 45.6431 36.2008 45.7882 35.8506C45.9332 35.5004 46.0079 35.125 46.0079 34.7459C46.0079 34.3668 45.9332 33.9914 45.7882 33.6412C45.6431 33.2909 45.4304 32.9727 45.1624 32.7046C44.8943 32.4366 44.5761 32.2239 44.2259 32.0789C43.8756 31.9338 43.5002 31.8591 43.1211 31.8591C42.742 31.8591 42.3667 31.9338 42.0164 32.0789C41.6662 32.2239 41.3479 32.4366 41.0799 32.7046Z" fill="#ED1B61"/>
</svg>
