<svg width="73" height="53" viewBox="0 0 73 53" fill="none" xmlns="http://www.w3.org/2000/svg">
<path d="M33.9693 45.5179V36.8028C33.9693 36.7521 33.986 36.7183 33.986 36.6677V30.9589C33.9693 30.8576 33.9526 30.7394 33.9526 30.6211V30.4185V28.2903H38.3415V45.5179C38.3415 46.734 37.3531 47.7305 36.1638 47.7305C34.9576 47.7305 33.9693 46.734 33.9693 45.5179ZM29.5636 6.65457V17.2613C29.5636 18.4267 30.5185 19.3894 31.6743 19.3894H31.8586C33.0145 19.3894 33.9693 18.4267 33.9693 17.2613V6.65457C33.9693 5.43851 34.9409 4.4589 36.147 4.4589C37.3531 4.4589 38.3247 5.4554 38.3247 6.65457V23.8483H31.8083H31.7748H31.7413C30.5352 23.8483 29.5469 24.7266 29.5469 25.8076V34.8774V41.8022V45.5179C29.5469 49.183 32.5119 52.1725 36.147 52.1725C39.7821 52.1725 42.7471 49.183 42.7471 45.5179V6.65457C42.7471 2.98949 39.7821 0 36.147 0C32.5287 0 29.5636 3.00638 29.5636 6.65457Z" fill="url(#paint0_linear_292_416)"/>
<path d="M47.1406 8.18414V43.9995C47.1406 45.2079 48.1315 46.1981 49.3407 46.1981C50.5499 46.1981 51.5407 45.2079 51.5407 43.9995V22.517V8.18414C51.5407 6.97575 50.5499 5.96875 49.3407 5.96875C48.1315 5.98553 47.1406 6.97575 47.1406 8.18414Z" fill="url(#paint1_linear_292_416)"/>
<path d="M20.75 8.18414V43.9995C20.75 45.2079 21.7371 46.1981 22.9417 46.1981C24.1463 46.1981 25.1501 45.2079 25.1501 43.9995V8.18414C25.1501 6.97575 24.163 5.96875 22.9417 5.96875C21.7371 5.98553 20.75 6.97575 20.75 8.18414Z" fill="url(#paint2_linear_292_416)"/>
<path d="M11.6328 13.2007V38.9713C11.6328 40.1808 12.6237 41.172 13.8329 41.172C15.042 41.172 16.0329 40.1808 16.0329 38.9713V13.2007C16.0329 11.9912 15.042 11 13.8329 11C12.6237 11 11.6328 11.9912 11.6328 13.2007Z" fill="url(#paint3_linear_292_416)"/>
<path d="M56.2578 13.2007V38.9713C56.2578 40.1808 57.2487 41.172 58.4579 41.172C59.667 41.172 60.6579 40.1808 60.6579 38.9713V13.2007C60.6579 11.9912 59.667 11 58.4579 11C57.2487 11 56.2578 11.9912 56.2578 13.2007Z" fill="url(#paint4_linear_292_416)"/>
<path d="M2.19712 14.7734C0.989542 14.7734 0 15.7765 0 17.0006V35.1583C0 35.4983 0.0838578 35.8213 0.218034 36.1104C0.570245 36.8754 1.32499 37.4025 2.2139 37.4025H5.03159C6.23917 37.4025 7.22872 36.3994 7.22872 35.1753C7.22872 33.9512 6.23917 32.9481 5.03159 32.9481H4.41103V19.2448H5.03159C6.23917 19.2448 7.22872 18.2418 7.22872 17.0176C7.22872 15.7935 6.23917 14.7904 5.03159 14.7904H2.19712V14.7734Z" fill="url(#paint5_linear_292_416)"/>
<path d="M70.089 14.7734H67.2647C66.0543 14.7734 65.0625 15.7773 65.0625 17.0023C65.0625 18.2273 66.0543 19.2312 67.2647 19.2312H67.8868V32.9447H67.2647C66.0543 32.9447 65.0625 33.9486 65.0625 35.1736C65.0625 36.3986 66.0543 37.4025 67.2647 37.4025H70.089C71.2994 37.4025 72.2912 36.3986 72.2912 35.1736V17.0023C72.2912 16.662 72.2072 16.3388 72.0727 16.0495C71.7196 15.2839 70.9632 14.7734 70.089 14.7734Z" fill="url(#paint6_linear_292_416)"/>
<defs>
<linearGradient id="paint0_linear_292_416" x1="36.147" y1="0" x2="36.147" y2="52.1725" gradientUnits="userSpaceOnUse">
<stop stop-color="#227DB6"/>
<stop offset="0.503125" stop-color="#855791"/>
<stop offset="1" stop-color="#EA2063"/>
</linearGradient>
<linearGradient id="paint1_linear_292_416" x1="56.3438" y1="7.79812" x2="47.2023" y2="47.0735" gradientUnits="userSpaceOnUse">
<stop stop-color="#815792"/>
<stop offset="1" stop-color="#ED1B61"/>
</linearGradient>
<linearGradient id="paint2_linear_292_416" x1="22.95" y1="5.96875" x2="22.95" y2="46.1981" gradientUnits="userSpaceOnUse">
<stop stop-color="#2094BD"/>
<stop offset="1" stop-color="#985289"/>
</linearGradient>
<linearGradient id="paint3_linear_292_416" x1="13.8329" y1="11" x2="13.8329" y2="41.172" gradientUnits="userSpaceOnUse">
<stop stop-color="#10AAC3"/>
<stop offset="1" stop-color="#4860A8"/>
</linearGradient>
<linearGradient id="paint4_linear_292_416" x1="58.4579" y1="11" x2="58.4579" y2="41.172" gradientUnits="userSpaceOnUse">
<stop stop-color="#C04176"/>
<stop offset="1" stop-color="#ED1B61"/>
</linearGradient>
<linearGradient id="paint5_linear_292_416" x1="3.61436" y1="14.7734" x2="3.61436" y2="37.4025" gradientUnits="userSpaceOnUse">
<stop stop-color="#0EB9C6"/>
<stop offset="1" stop-color="#1F74B3"/>
</linearGradient>
<linearGradient id="paint6_linear_292_416" x1="68.6769" y1="14.7734" x2="68.6769" y2="37.4025" gradientUnits="userSpaceOnUse">
<stop stop-color="#ED1B61"/>
<stop offset="1" stop-color="#ED1B61"/>
</linearGradient>
</defs>
</svg>
