<svg width="37" height="28" viewBox="0 0 37 28" fill="none" xmlns="http://www.w3.org/2000/svg">
<path opacity="0.3" fill-rule="evenodd" clip-rule="evenodd" d="M26.0735 26.7506C26.4022 27.3584 27.2227 27.6141 27.906 27.3217C33.4116 24.9661 36.9884 20.0073 36.9884 14.4759C36.9884 8.99755 33.48 4.07807 28.0554 1.69492C27.3756 1.39623 26.5522 1.6443 26.2164 2.24901C25.8805 2.85372 26.1595 3.58606 26.8393 3.88475C31.3357 5.86014 34.2424 9.93585 34.2424 14.4759C34.2424 19.0599 31.279 23.1683 26.7156 25.1207C26.0323 25.4131 25.7448 26.1428 26.0735 26.7506ZM25.1749 20.7604C25.545 21.3491 26.3816 21.5595 27.0434 21.2303C29.7722 19.873 31.5001 17.3086 31.5001 14.4759C31.5001 11.6641 29.7977 9.11571 27.1008 7.7503C26.4418 7.41665 25.6035 7.62134 25.2284 8.20749C24.8532 8.79363 25.0834 9.53927 25.7424 9.87291C27.5899 10.8083 28.7541 12.551 28.7541 14.4759C28.7541 16.415 27.5724 18.1688 25.7031 19.0985C25.0413 19.4277 24.8048 20.1718 25.1749 20.7604Z" fill="#7FDFF7"/>
<path fill-rule="evenodd" clip-rule="evenodd" d="M18.3095 1.57032C18.3095 0.707323 17.2897 0.24957 16.6449 0.823109L9.15339 7.48632V7.4839L1.64972 8.8187C0.695263 8.98849 0 9.81835 0 10.7878V17.2062C0 18.1756 0.695263 19.0055 1.64972 19.1753L9.15339 20.5101V20.5077L16.6449 27.1709C17.2897 27.7444 18.3095 27.2867 18.3095 26.4237V1.57032Z" fill="#7FDFF7"/>
</svg>
