<svg width="150" height="71" viewBox="0 0 150 71" fill="none" xmlns="http://www.w3.org/2000/svg">
<path d="M10.6281 34.0624C11.8063 34.0624 11.8063 36.4483 10.6281 36.4483H0.883673C-0.294558 36.4483 -0.294558 34.0624 0.883673 34.0624H10.6281ZM30.0938 55.0642C30.0938 56.6334 28.3023 56.6334 28.3023 55.0642V47.9239C28.3023 46.3547 30.0938 46.3547 30.0938 47.9239V55.0642ZM114.507 53.2151C114.507 54.7842 112.715 54.7842 112.715 53.2151V48.7055C112.715 47.1364 114.507 47.1364 114.507 48.7055V53.2151ZM51.1969 21.4144C51.1969 22.9835 49.4055 22.9835 49.4055 21.4144V16.0109C49.4055 14.4418 51.1969 14.4418 51.1969 16.0109V21.4144ZM46.9763 25.0883C46.9763 26.6574 45.1848 26.6574 45.1848 25.0883V21.9559C45.1848 20.3868 46.9763 20.3868 46.9763 21.9559V25.0883ZM68.0795 26.1645C68.0795 27.7337 66.288 27.7337 66.288 26.1645V22.3985C66.288 20.8293 68.0795 20.8293 68.0795 22.3985V26.1645ZM17.4318 39.4499C17.4318 41.0191 15.6404 41.0191 15.6404 39.4499V31.1349C15.6404 29.5658 17.4318 29.5658 17.4318 31.1349V39.4499ZM21.6525 44.8491C21.6525 46.4183 19.861 46.4183 19.861 44.8491V25.7358C19.861 24.1667 21.6525 24.1667 21.6525 25.7358V44.8491ZM25.8731 50.1823C25.8731 51.7514 24.0817 51.7514 24.0817 50.1823V20.4026C24.0817 18.8335 25.8731 18.8335 25.8731 20.4026V50.1823ZM30.0938 42.808C30.0938 44.3772 28.3023 44.3772 28.3023 42.808V30.0156C28.3023 28.4465 30.0938 28.4465 30.0938 30.0156V42.808ZM34.3144 46.8149C34.3144 48.384 32.5229 48.384 32.5229 46.8149V25.9992C32.5229 24.43 34.3144 24.43 34.3144 25.9992V46.8149ZM38.5351 60.0586C38.5351 61.6277 36.7436 61.6277 36.7436 60.0586V10.5264C36.7436 8.95729 38.5351 8.95729 38.5351 10.5264V60.0586ZM42.7557 52.6842C42.7557 54.2533 40.9642 54.2533 40.9642 52.6842V17.9008C40.9642 16.3316 42.7557 16.3316 42.7557 17.9008V52.6842ZM46.9763 51.3486C46.9763 52.9177 45.1848 52.9177 45.1848 51.3486V29.8841C45.1848 28.315 46.9763 28.315 46.9763 29.8841V51.3486ZM51.1969 46.8149C51.1969 48.384 49.4055 48.384 49.4055 46.8149V26.7236C49.4055 25.1545 51.1969 25.1545 51.1969 26.7236V46.8149ZM55.4176 51.3674C55.4176 52.9365 53.6261 52.9365 53.6261 51.3674V19.2176C53.6261 17.6484 55.4176 17.6484 55.4176 19.2176V51.3674ZM59.6383 40.7008C59.6383 42.27 57.8468 42.27 57.8468 40.7008V29.8841C57.8468 28.315 59.6383 28.315 59.6383 29.8841V40.7008ZM63.8589 44.9169C63.8589 46.4861 62.0674 46.4861 62.0674 44.9169V25.668C62.0674 24.0989 63.8589 24.0989 63.8589 25.668V44.9169ZM68.0795 39.0585C68.0795 40.6277 66.288 40.6277 66.288 39.0585V31.5265C66.288 29.9573 68.0795 29.9573 68.0795 31.5265V39.0585ZM72.3002 52.2891C72.3002 53.8583 70.5087 53.8583 70.5087 52.2891V18.2958C70.5087 16.7267 72.3002 16.7267 72.3002 18.2958V52.2891ZM76.5208 61.112C76.5208 62.6812 74.7293 62.6812 74.7293 61.112V9.47295C74.7293 7.90384 76.5208 7.90384 76.5208 9.47295V61.112ZM80.7414 50.8253C80.7414 52.3944 78.95 52.3944 78.95 50.8253V19.7597C78.95 18.1906 80.7414 18.1906 80.7414 19.7597V50.8253ZM84.9621 44.0582C84.9621 45.6273 83.1706 45.6273 83.1706 44.0582V26.5268C83.1706 24.9577 84.9621 24.9577 84.9621 26.5268V44.0582ZM89.1827 69.4082C89.1827 70.9773 87.3913 70.9773 87.3913 69.4082V63.5738C87.3913 62.0047 89.1827 62.0047 89.1827 63.5738V69.4082ZM89.1827 57.937C89.1827 59.5062 87.3913 59.5062 87.3913 57.937V1.17683C87.3913 -0.392277 89.1827 -0.392277 89.1827 1.17683V57.937ZM93.4034 61.1198C93.4034 62.6889 91.6119 62.6889 91.6119 61.1198V11.0532C91.6119 9.48402 93.4034 9.48402 93.4034 11.0532V61.1198ZM97.624 51.6307C97.624 53.1999 95.8325 53.1999 95.8325 51.6307V18.9542C95.8325 17.3851 97.624 17.3851 97.624 18.9542V51.6307ZM101.845 63.4824C101.845 65.0515 100.053 65.0515 100.053 63.4824V21.3493C100.053 19.7802 101.845 19.7802 101.845 21.3493V63.4824ZM101.845 15.4913C101.845 17.0604 100.053 17.0604 100.053 15.4913V7.10265C100.053 5.53354 101.845 5.53354 101.845 7.10265V15.4913ZM106.065 52.2891C106.065 53.8583 104.274 53.8583 104.274 52.2891V19.3051C104.274 17.736 106.065 17.736 106.065 19.3051V52.2891ZM110.286 49.9188C110.286 51.4879 108.494 51.4879 108.494 49.9188V15.063C108.494 13.4939 110.286 13.4939 110.286 15.063V49.9188ZM114.507 44.2524C114.507 45.8216 112.715 45.8216 112.715 44.2524V28.5672C112.715 26.9981 114.507 26.9981 114.507 28.5672V44.2524ZM118.727 40.0104C118.727 41.5795 116.936 41.5795 116.936 40.0104V29.4376C116.936 27.8685 118.727 27.8685 118.727 29.4376V40.0104ZM122.948 49.0441C122.948 50.6132 121.156 50.6132 121.156 49.0441V23.7701C121.156 22.201 122.948 22.201 122.948 23.7701V49.0441ZM127.168 44.1717C127.168 45.7408 125.377 45.7408 125.377 44.1717V16.578C125.377 15.0089 127.168 15.0089 127.168 16.578V44.1717ZM131.389 40.9454C131.389 42.5146 129.598 42.5146 129.598 40.9454V29.2033C129.598 27.6341 131.389 27.6341 131.389 29.2033V40.9454ZM148.374 34.0624C149.552 34.0624 149.552 36.4483 148.374 36.4483H136.18C135.002 36.4483 135.002 34.0624 136.18 34.0624H148.374Z" fill="white"/>
</svg>
